<svg width="77" height="77" fill="none" xmlns="http://www.w3.org/2000/svg">
  <path d="M33.694 25.6c1.487 0 2.975.003 4.461-.001.92-.002 1.554-.523 1.743-1.43.297-1.427.586-2.854.888-4.278C41.03 18.749 41.954 18 43.108 18c1.363.002 2.727.014 4.09.015 3.063.003 6.015.553 8.772 1.95 4.461 2.261 7.638 5.695 8.972 10.637 1.488 5.51.328 10.525-3.22 14.924-2.752 3.41-6.353 5.422-10.616 6.221-1.16.218-2.331.312-3.51.306-2.344-.013-4.687-.01-7.029-.013-1.043-.001-1.64.485-1.855 1.523-.283 1.364-.557 2.73-.836 4.096-.256 1.257-1.16 2.009-2.42 2.007-1.935-.003-3.869.018-5.802-.02-4.65-.092-8.805-1.546-12.275-4.765-2.86-2.655-4.658-5.935-5.198-9.838-.714-5.153.687-9.698 4.176-13.52 2.919-3.197 6.57-5.044 10.807-5.668 1.098-.161 2.22-.182 3.332-.219 1.066-.034 2.133-.007 3.2-.007-.002-.01-.002-.02-.002-.029zm10.313 19.955v-.018c.67 0 1.339.013 2.007-.003 1.1-.027 2.209-.01 3.301-.129 2.438-.265 4.61-1.208 6.476-2.844 4.135-3.624 4.565-9.926.91-14.046-2.335-2.634-5.35-3.81-8.788-3.947-1.472-.058-2.948-.039-4.422-.064-1.2-.021-1.764.72-1.917 1.558-.257 1.408-.56 2.808-.869 4.205-.254 1.152-1.14 1.858-2.295 1.865-2.33.014-4.66.023-6.99.034h-1.525c-1.782-.002-3.51.318-5.12 1.093-4.089 1.964-6.438 5.128-6.386 9.857a8.886 8.886 0 001.971 5.538c2.272 2.856 5.318 4.211 8.856 4.438 2.024.13 4.063.081 6.093.1.881.007 1.508-.525 1.688-1.398.295-1.44.58-2.88.882-4.318.25-1.187 1.144-1.915 2.331-1.918 1.268-.005 2.532-.003 3.797-.003z" fill="#fff"/>
</svg>
