<svg version="1.0" width="333.333" height="49.333" viewBox="0 0 250 37" xmlns="http://www.w3.org/2000/svg">
  <g fill="#003a45">
    <path d="M20.5 3.6C19 6.8 19 7.3 20.4 9.5c1.5 2.3 1.4 2.6-.9 5.1-3.3 3.5-3.4 9.1-.3 12.4l2.2 2.4 1.3-3c.6-1.6 1.2-3.6 1.2-4.4 0-.8-.5-.3-1.1 1.2-1.2 3.5-2.6 3.6-3.8.3-1.1-2.9-.1-6.2 2.8-8.8 1.9-1.7 2-1.7 4.7 1.5 2.2 2.6 2.6 3.9 2.1 6.6-.3 1.9-1.2 4.4-2 5.7-2.2 3.4-8.2 5.8-12.8 5.2C8.6 33 8 32.3 11 30c2.8-2.2 2.1-2.7-1-.8-1.7 1.1-2.3.9-4.1-.9-2.2-2.2-1.8-5.3.5-3.4C8 26.2 16 28 16 27c0-.4-1.6-1.1-3.5-1.4-4.1-.8-9.1-4.8-8.1-6.4.4-.7 1.8-1.2 3.1-1.2s2.7-.5 3-1c.3-.6-.3-1-1.4-1-2.7 0-2.9-4.7-.3-6.6 1.6-1.2 1.5-1.3-.6-1.4-2.8 0-3.8 2.4-2.5 6.1 1 2.5.8 2.8-1.3 3.3-2.8.7-3 2.2-.8 4.8 1.6 1.6 1.6 1.8 0 2.4-.9.3-1.6 1-1.6 1.5 0 1.2 5.3 6.4 7.8 7.8 2.5 1.4 9.7 1.4 12.1.1 1.3-.6 3.1-.4 6 .7 3.5 1.3 4.8 1.4 8.2.4 2.2-.7 4.3-2 4.7-2.9.3-.9 1.5-2.5 2.7-3.4 1.6-1.4 1.8-2 .8-3.6-.7-1.2-.8-2.4-.2-3.3 1.5-2.4 1-3.8-1.5-4.5-2.1-.5-2.3-.8-1.3-3.3 1.3-3.7.3-6.1-2.5-6.1-2.1.1-2.2.2-.5 1.4 2.5 1.9 2.3 6.6-.4 6.6-1.1 0-1.7.4-1.4 1 .3.5 1.7 1 3 1 6 0 2.9 5.2-4.4 7.5-4.1 1.2-4.3 1.4-1.6 1.4 1.7.1 4.2-.6 5.7-1.3 3.5-1.8 4.8-.2 2.1 2.5-1.6 1.7-2.4 1.8-4.8.9-1.6-.6-4.1-.8-5.6-.5l-2.8.6 1.5-3c1.9-3.9 1.1-8.1-2.2-11.4-2.2-2.3-2.3-2.6-1-5.2 1.5-2.9 1.2-4.9-1.2-7.8-2.1-2.4-2.7-2.2-4.7 1.9zm5.5 3c0 3-2.8 5.3-4.1 3.3-1.2-1.9-1.1-4.6.2-7.1 1.1-2.1 1.2-2.1 2.5-.3.8 1 1.4 2.9 1.4 4.1zm11.3 24.6c2.1 1.1 2.1 1.1.2 1.9-2.7 1-9.7 1.1-11.4 0-3.7-2.3 7-4.2 11.2-1.9z"/>
    <path d="M11.6 5.6c-1.1 2.8-.6 7.4.9 10.4 1.7 3.2 3.2 4.1 2 1.2-1.6-3.9-2.1-6.8-1.6-9l.6-2.4L16.3 8C17.8 9.2 19 9.7 19 9.1c0-.9-5.2-5.1-6.3-5.1-.3 0-.8.7-1.1 1.6zM31.2 6C29.4 7.1 28 8.5 28 9.1c0 .6 1.2.1 2.7-1.1l2.8-2.1.8 2.4c.5 1.6.2 4-.7 6.8l-1.5 4.4 2-2.4c1.2-1.5 1.9-3.8 1.9-6.5 0-6.1-.9-6.9-4.8-4.6zM70.9 8.9c-1.8 1.4-2.3 3.1-2.7 8-.3 3.6.1 7.3.8 9 1.8 4.5 9 6.1 10.4 2.4.4-1.1.2-1.3-.9-.9-.8.3-2.1.8-2.8 1.1-1.8.8-4.3-2.3-5-6.3l-.6-3.2H80v-3.5c0-2.5-.8-4.4-2.5-6-2.9-3-3.6-3.1-6.6-.6zm4.8 1.3c.6.7 1.3 2.5 1.5 4 .5 2.6.3 2.8-3.2 2.8s-3.7-.2-3.2-2.8C71.3 11.3 72.7 9 74 9c.4 0 1.2.6 1.7 1.2zM102.9 7.7c-1 .2-1.9 1.3-2.2 2.3-.5 1.9-.4 1.9 2.6.4 2.8-1.5 3.1-1.5 4.4.2 2.1 2.9 1.6 5.1-1.4 5.9-4.4 1.1-6.3 3.4-6.3 7.6 0 5.1 3.2 7.7 6.7 5.4 1.3-.9 2.3-1.1 2.3-.5 0 .5.6 1 1.4 1 1 0 1.3-2.1 1.2-9.6-.1-8.8-.3-9.8-2.5-11.5-2.3-1.9-3.1-2.1-6.2-1.2zm5.9 14.4c-.4 5.2-3.1 7.5-5.4 4.5-1.6-2.2-1-5.5 1.4-7.4 3.1-2.4 4.3-1.5 4 2.9zM126.4 8c-3.7 1.5-5.4 5-5.4 11.1 0 7.5 2.5 10.9 8.1 10.9 2.8 0 3.9-.4 3.9-1.5 0-1.7-.9-1.9-2.9-.6-4.2 2.6-8-5.7-6.1-12.9 1.2-4.3 4.4-7 6.3-5.1 1.5 1.5 2.7 1.4 2.7-.4 0-.8-.4-1.5-.9-1.5s-1.5-.2-2.3-.4c-.7-.3-2.3-.1-3.4.4zM154.2 7.7c-2.2.9-4.2 6.1-4.2 11 0 5.6 1.7 9.3 4.8 10.9 2.8 1.4 7.2.6 7.2-1.2 0-1.7-.5-1.7-3-.4-2.7 1.4-6-2-6-6 0-2.9.1-3 4.9-3h4.8l-.7-4.2c-.5-2.4-1.7-5-3-6-2.3-1.9-2.7-2-4.8-1.1zm3.6 2.6c.6.6 1.3 2.4 1.7 4 .7 2.6.5 2.7-2.9 2.7-3 0-3.6-.4-3.6-2.1 0-2.4 1.7-5.9 2.9-5.9.5 0 1.3.6 1.9 1.3zM167.5 9.4c-2.3 2.3-2.5 3.2-2.5 11.6 0 7.3.3 9 1.5 9s1.5-1.3 1.5-5.5c0-5.4 0-5.5 3-5.5 1.7 0 3-.5 3-1 0-.6-1.3-1-3-1-2.7 0-3-.3-3-3 0-3.2 2.2-5 5.3-4.2 1.4.3 1.8.1 1.5-.9-.8-2.4-4.6-2.2-7.3.5zM52.8 19l-.3 11.1 4.4-.3c3.4-.2 4.8-.9 6.4-2.9 3.3-4.5 2.3-15.5-1.7-18.1-.6-.4-2.8-.8-4.8-.8h-3.7l-.3 11zm8.3-7.4c.8 1 1.4 4 1.4 7.4 0 6.3-1.5 9-5 9-2.2 0-2.2-.3-2.2-9s0-9 2.2-9c1.2 0 2.9.7 3.6 1.6zM89.5 19v11h4.8c2.6 0 4.7-.5 4.7-1 0-.6-1.6-1-3.5-1H92V18c0-7.3-.3-10-1.2-10-1 0-1.3 2.9-1.3 11zM135 19c0 9.1.3 11 1.5 11s1.5-1.3 1.5-5.5c0-5.4 0-5.5 3-5.5s3 .1 3 5.5c0 4.2.3 5.5 1.5 5.5s1.5-1.9 1.5-11-.3-11-1.5-11c-1.1 0-1.5 1.2-1.5 4.5 0 4.3-.1 4.5-3 4.5s-3-.2-3-4.5c0-3.3-.4-4.5-1.5-4.5-1.2 0-1.5 1.9-1.5 11zM183.8 9.1c-2.2 1.2-2.4 6.2-.4 7.9 2.3 1.8 6.1.8 6.4-1.8.2-1.5-.2-2.2-1.3-2.2-1.2 0-1.5.6-1 2.1.5 1.6.3 2-1 1.7-2.4-.4-4-3.1-3.1-5.3.5-1.3 1.3-1.6 3.6-1.1 1.7.3 3 .1 3-.4 0-.6-.4-1-.9-1s-1.5-.2-2.3-.5c-.7-.2-2.1 0-3 .6zM193.2 9.6c-3.9 2.7-2.3 8.4 2.3 8.4 1.2 0 2.6-.5 3.3-1.2 1.9-1.9 1.5-6.6-.7-7.8-2.5-1.3-2.2-1.3-4.9.6zm5.6 3c.4 2.5-2.2 4.9-4.3 4-1.5-.5-2.1-4.7-.8-6 1.4-1.4 4.8-.1 5.1 2zM202.3 12.5c.2 4.5.4 5 2.6 5.3 1.5.3 3-.3 3.8-1.4 1.5-2.1 1.7-7.4.3-7.4-.5 0-1 1.6-1 3.5 0 2.3-.6 3.8-1.5 4.2-2.2.8-2.8-.1-3.6-5l-.7-4.2.1 5zM235.8 8.8c-3.8.3-3.8.4-3.8 4.8 0 4.3 0 4.4 3.3 4.3 3-.2 3-.2.5-.6-3.4-.5-3.7-3-.5-3.6l2.2-.4-2.2-.2c-1.3 0-2.3-.8-2.3-1.6 0-1.1 1.1-1.5 4-1.5 4 0 4 0 4 4 0 2.2.5 4 1 4 .6 0 1-1.8 1-4 0-2.9.4-4 1.5-4 .8 0 1.5-.3 1.5-.8 0-.7-4-.9-10.2-.4zM212.1 13.7c.1 2.7.4 3.7.6 2.5l.5-2.4 2.4 2.3c1.3 1.2 2.4 1.7 2.4 1.1 0-.6-.5-1.4-1-1.7-.8-.5-.7-1.1.1-2.1 1.7-2 .3-4.4-2.6-4.4-2.3 0-2.5.3-2.4 4.7zm3.9-2.2c0 .8-.7 1.5-1.5 1.5s-1.5-.7-1.5-1.5.7-1.5 1.5-1.5 1.5.7 1.5 1.5zM220.2 13.7c.1 4 .2 4.2.5 1.4l.5-3.4 1.8 2.8 1.8 2.8 1.6-3.2c.9-1.7 1.8-3.1 1.9-3.1.2 0 .1 1.6-.1 3.5-.3 2.1 0 3.5.7 3.5.6 0 1.1-1.9 1.1-4.5 0-5.3-1.1-5.7-3.7-1.4l-2 3-1.3-3c-1.8-4.5-3-3.8-2.8 1.6zM200 25.8c0 2.9.3 5.2.8 5.2.8 0 .7-8.8-.2-9.7-.3-.3-.6 1.7-.6 4.5zM203.9 22.6c-1.2 1.4-1 1.9 1.5 3.9 2.8 2.2 2.3 4.1-.8 2.9-.9-.3-1.6-.1-1.6.5s1.1 1.1 2.5 1.1c3.5 0 4.5-2.9 1.7-4.8s-2.8-3.2.1-3.2c1.8 0 1.9-.2.7-1-2.1-1.3-2.5-1.3-4.1.6zM211.3 26c0 3 .2 4.5.4 3.2.3-1.5 1.1-2.2 2.8-2.2 1.7 0 2.5.7 2.8 2.2.2 1.3.4-.2.4-3.2s-.2-4.3-.4-2.8c-.3 2.2-1 2.8-2.8 2.8-1.8 0-2.5-.6-2.8-2.8-.2-1.5-.4-.2-.4 2.8zM223.3 21.8c-2 .3-2.3 1-2.3 4.7v4.4h5.9c4.6-.1 6.1-.4 6.6-1.7.6-1.5-1.8-4.2-3.7-4.2-.4 0-.8-.5-.8-1 0-.6 1-1 2.2-1 1.5 0 1.9-.3 1.2-1-1.6-1.6-4.4-.1-4.4 2.2 0 1.1.8 2.2 2 2.5 4 1 2.1 3-3 3.1-3.6.1-5-.3-5-1.3 0-.7 1-1.6 2.3-1.8l2.2-.4-2.2-.2c-3.3-.2-2.9-2.9.5-3.3 1.5-.2 2.3-.5 1.7-.9-.5-.3-2-.3-3.2-.1zM190 26.6c0 4.5 0 4.5 3.1 4.2 3.8-.4 5.4-2.6 4.5-6.1-.5-2.3-1.2-2.7-4.1-2.7-3.5 0-3.5 0-3.5 4.6zm6.7-2c.8 2-.8 4.8-3.1 5.2-1.2.3-1.6-.4-1.6-3.2 0-3 .4-3.6 2-3.6 1.1 0 2.3.7 2.7 1.6z"/>
  </g>
</svg>
