<svg width="77" height="77" fill="none" xmlns="http://www.w3.org/2000/svg">
  <path d="M45.71 35.083c.742-7.032 1.484-14.064 2.222-21.073.547-.121 11.313.947 12.35 1.211-.062.672-.122 1.353-.192 2.033-.09.883-.189 1.764-.286 2.646-.094.864-.192 1.727-.283 2.591-.09.847-.172 1.695-.261 2.54-.133 1.242-.273 2.483-.404 3.726-.089.828-.163 1.658-.25 2.486-.132 1.242-.273 2.484-.405 3.726-.088.828-.162 1.659-.25 2.487-.131 1.242-.273 2.483-.404 3.726-.09.846-.165 1.694-.252 2.54-.11 1.081-.203 2.165-.353 3.24-.05.348-.244.68-.392 1.01-1.677 3.762-3.357 7.521-5.036 11.281-.503 1.127-1.004 2.255-1.507 3.381-.036.08-.082.155-.139.262-.916-.19-1.818-.374-2.721-.566-4.56-.965-9.12-1.93-13.68-2.899-4.327-.92-8.654-1.849-12.982-2.773-.371-.08-.743-.164-1.118-.227-.25-.043-.373-.167-.426-.417-.541-2.59-1.091-5.177-1.637-7.767-.416-1.968-.83-3.937-1.244-5.906-.113-.534-.11-.537.407-.647l14.372-3.046c.692-.148 1.385-.29 2.076-.44.157-.034.309-.094.539-.166-.362-2.038-.843-4.039-1.255-6.052-.41-2.006-.853-4.005-1.282-6.008-.432-2.018-.861-4.037-1.31-6.132 4.045-.889 8.065-1.715 12.152-2.598l3.803 17.842.149-.011zM45.4 46.942c1.017.01 1.589-.294 1.896-1.017.092-.215.17-.438.239-.662.18-.584.046-1.11-.317-1.587-.941-1.236-2.625-1.173-3.417.131-.26.43-.374.915-.32 1.41.056.506.162 1.02.67 1.3.464.257.963.418 1.249.425zm-6.509-3.296c.017-.67-.263-1.166-.819-1.556-.617-.431-1.262-.484-1.966-.329-.727.162-1.168.558-1.32 1.322-.285 1.43.303 2.328 1.742 2.564 1.333.22 2.368-.656 2.363-2z" fill="#fff"/>
</svg>
