<svg width="58" height="58" fill="none" xmlns="http://www.w3.org/2000/svg">
  <path fill-rule="evenodd" clip-rule="evenodd" d="M29 0C12.977 0 0 12.977 0 29c0 12.833 8.301 23.671 19.829 27.514 1.45.253 1.994-.617 1.994-1.378 0-.689-.037-2.972-.037-5.401-7.286 1.341-9.171-1.776-9.751-3.407-.326-.834-1.74-3.408-2.973-4.097-1.014-.544-2.464-1.885-.036-1.921 2.284-.036 3.915 2.102 4.459 2.972 2.61 4.387 6.779 3.154 8.446 2.393.254-1.885 1.015-3.154 1.849-3.879-6.453-.725-13.195-3.226-13.195-14.319 0-3.153 1.124-5.763 2.972-7.793-.29-.725-1.305-3.698.29-7.685 0 0 2.43-.761 7.976 2.972a26.91 26.91 0 017.25-.979c2.465 0 4.93.327 7.25.98 5.546-3.77 7.974-2.973 7.974-2.973 1.596 3.987.58 6.96.29 7.685 1.85 2.03 2.973 4.604 2.973 7.793 0 11.13-6.779 13.594-13.231 14.32 1.051.906 1.957 2.646 1.957 5.364 0 3.879-.036 6.996-.036 7.975 0 .761.544 1.668 1.994 1.378C49.699 52.67 58 41.796 58 29 58 12.977 45.023 0 29 0z" fill="#fff"/>
</svg>
