<svg width="77" height="77" fill="none" xmlns="http://www.w3.org/2000/svg">
  <path d="M57.641 19.723c0-5.346-5.018-7.016-9.368-6.682v.835c2.51 0 4.517.835 4.517 2.673 0 1.17-.837 2.673-3.346 2.673-2.008 0-5.855-1.17-9.034-2.172-3.513-1.17-6.692-2.339-9.368-2.339-5.354 0-9.369 4.01-9.369 8.855 0 4.01 3.011 5.346 4.182 5.847l.335-.668c-.837-.502-1.506-1.17-1.506-2.673 0-1.17 1.004-3.008 3.848-3.008 2.51 0 5.688 1.17 10.038 2.34 3.68 1.002 7.863 2.004 10.038 2.338v8.353l-4.183 3.509v.334l4.183 3.675V55.14c-2.175 1.17-4.685 1.504-6.692 1.504-4.015 0-7.696-1.002-10.707-4.344l11.209-5.346v-18.71l-13.886 6.014c1.506-3.676 4.35-6.015 7.194-7.852l-.167-.501C27.36 28.076 20 35.595 20 44.783c0 11.026 9.034 19.212 19.239 19.212 11.041 0 18.068-8.688 17.9-17.709h-.669c-1.673 3.508-4.015 6.85-7.026 8.52v-11.36l4.35-3.508v-.334l-4.35-3.676v-8.353c4.015 0 8.197-2.673 8.197-7.852zM33.886 49.962l-3.346 1.67c-1.84-2.506-3.179-5.847-3.179-10.358 0-1.837.167-4.176.837-5.847l5.688-2.506v17.04z" fill="#fff"/>
</svg>
