<svg width="77" height="77" fill="none" xmlns="http://www.w3.org/2000/svg">
  <path d="M24.192 44.656a5.109 5.109 0 01-5.096 5.096A5.109 5.109 0 0114 44.656a5.109 5.109 0 015.096-5.096h5.096v5.096zM26.76 44.656a5.109 5.109 0 015.096-5.096 5.109 5.109 0 015.097 5.096v12.76a5.109 5.109 0 01-5.097 5.097 5.109 5.109 0 01-5.096-5.096v-12.76zM31.856 24.192a5.109 5.109 0 01-5.096-5.096A5.109 5.109 0 0131.856 14a5.109 5.109 0 015.097 5.096v5.096h-5.097zM31.856 26.76a5.109 5.109 0 015.097 5.096 5.109 5.109 0 01-5.097 5.097h-12.76A5.109 5.109 0 0114 31.856a5.109 5.109 0 015.096-5.096h12.76zM52.32 31.856a5.109 5.109 0 015.096-5.096 5.109 5.109 0 015.097 5.096 5.109 5.109 0 01-5.096 5.097H52.32v-5.097zM49.752 31.856a5.109 5.109 0 01-5.096 5.097 5.109 5.109 0 01-5.096-5.097v-12.76A5.109 5.109 0 0144.656 14a5.109 5.109 0 015.096 5.096v12.76zM44.656 52.32a5.109 5.109 0 015.096 5.096 5.109 5.109 0 01-5.096 5.097 5.109 5.109 0 01-5.096-5.096V52.32h5.096zM44.656 49.752a5.109 5.109 0 01-5.096-5.096 5.109 5.109 0 015.096-5.096h12.76a5.109 5.109 0 015.097 5.096 5.109 5.109 0 01-5.096 5.096h-12.76z" fill="#fff"/>
</svg>
