<svg width="77" height="77" fill="none"  xmlns="http://www.w3.org/2000/svg">
  <path d="M53.268 60.684c.232.083.45.152.655.235 1.72.706 2.702 2.007 2.974 3.848.014.056 0 .139.028.18.177.236.04.388-.137.485-.34.194-.682.415-1.05.498-1.283.305-2.579.61-3.875.803-3.329.484-6.685.65-10.055.734-3.52.083-7.04.027-10.547-.166-2.592-.153-5.17-.347-7.722-.873-.778-.152-1.542-.401-2.292-.678-.6-.221-.655-.415-.546-1.066.328-2.007 1.46-3.294 3.343-3.917.082-.028.15-.056.26-.097-.26-.18-.506-.346-.738-.512-2.592-1.842-4.175-4.389-5.007-7.448-.627-2.256-.887-4.582-.873-6.907.014-3.046.123-6.091.177-9.137.041-2.56.11-5.122-.313-7.655-.11-.637-.396-1.246-.669-1.827a11.49 11.49 0 00-2.278-3.267c-.328-.318-.655-.623-1.106-.775-.232-.07-.545-.194-.49-.47.04-.195.3-.416.504-.471.846-.25 1.692-.485 2.551-.651.928-.18 1.87-.277 2.838-.43-.027-.082-.04-.18-.082-.276-.49-1.37-.996-2.727-1.487-4.098a3.154 3.154 0 00-.941-1.328c-.6-.526-1.242-1.025-1.842-1.565a4.635 4.635 0 01-.71-.844c-.409-.623-.34-1.758.369-2.34a8.279 8.279 0 013.138-1.605c.969-.25 1.95.249 2.278 1.218.191.553.246 1.149.341 1.73.123.734.192 1.467.328 2.187.054.263.177.526.327.762a616.965 616.965 0 003.493 5.523c.11.166.205.263.437.25 1.896-.098 3.793-.222 5.689-.25 3.48-.07 6.958-.152 10.424-.097 3.915.055 7.831.18 11.747.401 2.715.153 5.43.485 8.145.803 1.078.125 2.142.43 3.22.679.232.055.45.194.655.318.177.097.177.235.013.374-.095.07-.177.152-.286.18-.682.207-1.133.733-1.583 1.232a11.593 11.593 0 00-2.47 4.305c-.204.637-.218 1.329-.286 2.007-.245 2.866-.109 5.745-.013 8.61.068 2.105.136 4.223.109 6.34-.028 2.7-.287 5.371-1.133 7.96-.968 2.935-2.674 5.288-5.266 6.963-.096.014-.15.055-.246.125zm-2.892-28.06c.26.305.477.595.723.858.9.97 1.255 2.146 1.255 3.447.014 2.686-.805 5.15-1.978 7.49-1.078 2.145-2.483 4.097-4.27 5.716-1.174 1.066-2.484 1.855-4.12 1.98-1.447.097-2.293-.595-2.866-1.841-.068-.153-.068-.263.068-.388.26-.249.505-.526.737-.803 1.965-2.27 3.643-4.748 5.17-7.322.779-1.316 1.515-2.645 2.006-4.098.3-.886.519-1.772.41-2.713-.137-1.122-.887-1.855-1.992-1.841a6.036 6.036 0 00-1.72.276c-2.032.651-3.683 1.883-5.088 3.475-2.06 2.312-3.452 5.025-4.434 7.946-.56 1.661-1.01 3.364-.97 5.122.014.83-.258 1.287-.954 1.633-.778.388-1.542.72-2.429.582-1.078-.153-1.828-.693-2.128-1.786-.082-.319-.177-.637-.232-.97-.218-1.453-.041-2.879.355-4.29.614-2.23 1.637-4.25 2.824-6.216 1.419-2.367 3.07-4.568 4.748-6.755.082-.11.163-.222.3-.388-.518.125-.941.222-1.35.319a16.515 16.515 0 01-6.168.304c-1.16-.166-2.319-.29-3.479-.332-1.76-.055-3.042.761-3.86 2.34a7.381 7.381 0 00-.792 2.685c.641-.457 1.323-.623 2.046-.595.928.041 1.856.096 2.797.18 1.064.083 2.129.235 3.193.083.436-.07.873-.153 1.323-.236-.013.042-.013.07-.027.083-.082.125-.164.236-.246.36-1.732 2.617-3.301 5.33-4.502 8.25-.969 2.34-1.214 4.735-.696 7.213.491 2.311 1.747 3.543 4.434 3.751 1.297.11 2.497-.304 3.63-.886.804-.415 1.569-.9 2.36-1.37-.014 0 .014 0 .027.014.11.11.205.235.314.346.778.803 1.637 1.453 2.77 1.633 1.65.277 3.274.18 4.857-.332 2.278-.734 4.175-2.104 5.866-3.765 1.938-1.897 3.493-4.098 4.94-6.396 1.486-2.353 2.673-4.817 3.274-7.544.355-1.606.614-3.226.34-4.887-.176-1.093-.627-2.02-1.486-2.713-.723-.581-1.487-.637-2.279-.166a2.342 2.342 0 00-.477.346c-.778.72-1.487 1.454-2.224 2.201zM25.79 23.1h-.368c-1.883-.138-3.766-.29-5.649-.429-.232-.014-.368-.07-.422-.304-.028-.166-.123-.236-.3-.208-.574.083-1.16.152-1.733.25-.232.04-.56.082-.546.387.014.29.327.332.573.373.546.097 1.091.194 1.637.236 2.497.207 4.98.443 7.477.595 2.278.139 4.57.235 6.849.25 3.738.027 7.49.027 11.228-.028 2.334-.028 4.666-.153 7.013-.25 2.797-.124 5.58-.36 8.364-.761.177-.028.368-.055.532-.138.123-.056.218-.194.327-.291-.109-.11-.204-.25-.34-.319-.124-.069-.287-.096-.437-.124-1.733-.194-3.466-.43-5.199-.554-2.66-.194-5.32-.318-7.981-.429-2.333-.083-4.68-.125-7.013-.125-2.497 0-4.98.028-7.477.084-1.992.041-3.97.138-5.962.221-.477.014-.968.055-1.5.097.34.526.613.969.927 1.467z" fill="#fff"/>
  <path d="M36.882 47.533c.082-.388.123-.79.232-1.177.682-2.38 1.733-4.596 3.07-6.672a7.827 7.827 0 012.142-2.215c.218-.152.464-.374.723-.194.26.18.178.499.15.776-.122 1.273-.723 2.367-1.296 3.474-1.132 2.146-2.66 3.96-4.393 5.62-.164.166-.368.29-.546.43-.027-.015-.054-.028-.082-.042z" fill="#fff"/>
</svg>
