<svg width="77" height="77" fill="none" xmlns="http://www.w3.org/2000/svg">
  <path fill-rule="evenodd" clip-rule="evenodd" d="M30.152 34.6c1.848 1.88 1.848 4.92 0 6.78a4.644 4.644 0 01-6.666 0c-1.848-1.88-1.848-4.92 0-6.78 1.829-1.86 4.817-1.86 6.666 0zM26.809 30c2.006 0 4.03.78 5.565 2.34 3.067 3.12 3.067 8.18 0 11.32a7.786 7.786 0 01-11.13 0c-3.067-3.12-3.067-8.18 0-11.32A7.761 7.761 0 0126.81 30zm22.081 2.34c3.068 3.12 3.068 8.18 0 11.32a7.786 7.786 0 01-11.129 0c-3.067-3.12-3.067-8.18 0-11.32A7.762 7.762 0 0143.326 30c2.025 0 4.03.78 5.564 2.34zM7.146 45.96l.787.04H19.73l-.039-.8c-.098-1.32-1.022-2.28-2.32-2.36l-.787-.04H9.506l9.438-9.6-.04-.8c-.058-1.32-1.022-2.28-2.32-2.36l-.786-.04H4l.04.8c.098 1.3 1.041 2.28 2.32 2.36l.786.04h7.079l-9.438 9.6.039.8c.078 1.32 1.022 2.28 2.32 2.36zM60.983 34.8c.275.48.354 1 .393 1.6l.04.8v5.6l.04.8c.078 1.3 1.021 2.28 2.32 2.36l.786.04v-8.8l.04-.8c.038-.6.117-1.14.392-1.62a3.105 3.105 0 012.714-1.58c1.16 0 2.182.64 2.733 1.6.275.48.354 1.02.374 1.6l.039.8v5.6l.04.8c.078 1.32 1.022 2.28 2.32 2.36L74 46V36.4c0-3.54-2.812-6.4-6.292-6.4-1.888 0-3.56.84-4.72 2.16-1.16-1.32-2.83-2.16-4.718-2.16-1.298 0-2.517.4-3.52 1.1-.61-.7-1.986-1.1-2.773-1.1v16l.787-.04c1.317-.08 2.261-1.04 2.32-2.36l.04-.8v-5.6l.039-.8c.04-.6.118-1.14.393-1.6.55-.96 1.554-1.6 2.714-1.6a3.1 3.1 0 012.713 1.6zM46.67 41.38c1.848-1.86 1.848-4.9 0-6.78-1.849-1.86-4.837-1.86-6.666 0-1.849 1.86-1.849 4.9 0 6.78a4.644 4.644 0 006.666 0z" fill="#fff"/>
</svg>
